{"title":"Top.Gear.The.Perfect.Road.Trip.2.2014.WEB-D.X264.AC3.CrEwSaDe","uid":11387070,"size":956174150,"categoryP":"video","categoryS":"movies","magnet":"?xt=urn:btih:579fa617024fd2c45bb203a8df173a3d9849ea2a&amp;dn=Top.Gear.The.Perfect.Road.Trip.2.2014.WEB-D.X264.AC3.CrEwSaDe&amp;tr=udp%3A%2F%2Ftracker.openbittorrent.com%3A80&amp;tr=udp%3A%2F%2Fopen.demonii.com%3A1337&amp;tr=udp%3A%2F%2Ftracker.coppersurfer.tk%3A6969&amp;tr=udp%3A%2F%2Fexodus.desync.com%3A6969","seeders":1,"leechers":0,"uploader":"xxxlavalxxx","files":-1,"time":1415280674,"description":"[IMG]http://i.imgur.com/XZMukQO.jpg[/IMG]\n\n &lt;a href=&quot;\nhttp://www.imdb.com/title/tt1628033/&quot; rel=&quot;nofollow&quot; target=&quot;_NEW&quot;&gt;\nhttp://www.imdb.com/title/tt1628033/&lt;/a&gt;\n\n\nIn 2013 Jeremy Clarkson and Richard Hammond embarked on what they hoped would be the perfect road trip. It started well and ended, quite frankly, very badly. Unbowed, the Top Gear pair are back for another crack and this time they re hoping to avoid inconveniences like apprehension by the French police. Welcome, then, to The Perfect Road Trip 2\n\nOnce again, Clarkson and Hammond are seeking joy and perfection wherever it may be with a range of fast, beautiful and exciting cars unleashed on glorious roads amongst gorgeous scenery and drenched in Mediterranean sunshine. As part of their arduous research into perfection, the duo will also undertake some ridiculous challenges and hilarious stunts culminating in a strangely literal car race on the island of Capri. Top Gear The Perfect Road Trip 2. This time it really is perfect. Except for the bits that aren t\n\nStars: Richard Hammond, Jeremy Clarkson,\nGENRE: Documentry | Comedy\nCountry: UK\nLanguage: English\n\n\nVideo Codec: V_MPEG4/ISO/AVC\nVideo Bitrate: 1 011 Kbps\nAudio Codec: A_AC3\nAudio Bitrate: 320 Kbps\nResolution: 720 pixels x 400 pixels\nRuntime: 1h 34mn\nRelease Date: 06/11/2014\nTheatre Date: 17-11-2014 official release date\nLanguage: English\nSubtitles: Nope\nIMDB Rating: Not Available\nIMDb URL: Not Available\n\n\nFormat: Matroska\nFormat version: Version 2\nFile size: 901 MiB\nDuration: 1h 34mn\nOverall bit rate: 1 333 Kbps\nEncoded date: UTC 2014-11-06 04:08:27\nWriting application: mkvmerge v7.0.0 ('Where We Going') 32bit built on Jun 9 2014 15:08:34\nWriting library: libebml v1.3.0 + libmatroska v1.4.1\nDURATION: 01:34:30.368000000\nNUMBER_OF_FRAMES: 177199\nNUMBER_OF_BYTES: 226814720\n_STATISTICS_WRITING_APP: mkvmerge v7.0.0 ('Where We Going') 32bit built on Jun 9 2014 15:08:34\n_STATISTICS_WRITING_DATE_UTC: 2014-11-06 04:08:27\n_STATISTICS_TAGS: BPS DURATION NUMBER_OF_FRAMES NUMBER_OF_BYTES\n\n\nID: 1\nFormat: AVC\nFormat/Info: Advanced Video Codec\nFormat profile: &lt;a class=&quot;__cf_email__&quot; href=&quot;/cdn-cgi/l/email-protection&quot; data-cfemail=&quot;347c5d535c7478071a04&quot;&gt;[email&amp;#160;protected]&lt;/a&gt;&lt;script cf-hash='f9e31' type=&quot;text/javascript&quot;&gt;\n/* &lt;![CDATA[ */!function(){try{var t=&quot;currentScript&quot;in document?document.currentScript:function(){for(var t=document.getElementsByTagName(&quot;script&quot;),e=t.length;e--;)if(t[e].getAttribute(&quot;cf-hash&quot;))return t[e]}();if(t&amp;&amp;t.previousSibling){var e,r,n,i,c=t.previousSibling,a=c.getAttribute(&quot;data-cfemail&quot;);if(a){for(e=&quot;&quot;,r=parseInt(a.substr(0,2),16),n=2;a.length-n;n+=2)i=parseInt(a.substr(n,2),16)^r,e+=String.fromCharCode(i);e=document.createTextNode(e),c.parentNode.replaceChild(e,c)}}}catch(u){}}();/* ]]&gt; */&lt;/script&gt;\nFormat settings, CABAC: Yes\nFormat settings, ReFrames: 4 frames\nCodec ID: V_MPEG4/ISO/AVC\nDuration: 1h 34mn\nBit rate: 1 011 Kbps\nWidth: 720 pixels\nHeight: 400 pixels\nDisplay aspect ratio: 16:9\nFrame rate mode: Constant\nFrame rate: 25.000 fps\nColor space: YUV\nChroma subsampling: 4:2:0\nBit depth: 8 bits\nScan type: Progressive\nBits/(Pixel*Frame): 0.140\nStream size: 667 MiB (74%)\nWriting library: x264 core 142 r2431 ac76440\nEncoding settings: cabac=1 / ref=3 / deblock\nDefault: Yes\nForced: No\n\n\n\nID: 2\nFormat: AC-3\nFormat/Info: Audio Coding 3\nMode extension: CM (complete main)\nFormat settings, Endianness: Big\nCodec ID: A_AC3\nDuration: 1h 34mn\nBit rate mode: Constant\nBit rate: 320 Kbps\nChannel(s): 6 channels\nChannel positions: Front: L C R, Side: L R, LFE\nSampling rate: 48.0 KHz\nBit depth: 16 bits\nCompression mode: Lossy\nStream size: 216 MiB (24%)\nLanguage: English\nDefault: Yes\nForced: No\n\nSource\n\nVIDEO: \nTop.Gear.The.Perfect.Road.Trip.2.2014.1080p.WEB-DL.DD5.1.H.264-CtrlHD Thanks \n\nAUDIO: \nTop.Gear.The.Perfect.Road.Trip.2.2014.1080p.WEB-DL.DD5.1.H.264-CtrlHD Thanks\n\n\nscreens\n &lt;a href=&quot;\nhttp://i.imgur.com/871UyTp.jpg&quot; rel=&quot;nofollow&quot; target=&quot;_NEW&quot;&gt;\nhttp://i.imgur.com/871UyTp.jpg&lt;/a&gt; &lt;a href=&quot;\nhttp://i.imgur.com/QtGGZjl.jpg&quot; rel=&quot;nofollow&quot; target=&quot;_NEW&quot;&gt;\nhttp://i.imgur.com/QtGGZjl.jpg&lt;/a&gt; &lt;a href=&quot;\nhttp://i.imgur.com/1cePiQw.jpg&quot; rel=&quot;nofollow&quot; target=&quot;_NEW&quot;&gt;\nhttp://i.imgur.com/1cePiQw.jpg&lt;/a&gt; &lt;a href=&quot;\nhttp://i.imgur.com/HzCeWwj.jpg&quot; rel=&quot;nofollow&quot; target=&quot;_NEW&quot;&gt;\nhttp://i.imgur.com/HzCeWwj.jpg&lt;/a&gt;","torrent":{"xt":"urn:btih:579fa617024fd2c45bb203a8df173a3d9849ea2a","amp;dn":"Top.Gear.The.Perfect.Road.Trip.2.2014.WEB-D.X264.AC3.CrEwSaDe","amp;tr":["udp%3A%2F%2Ftracker.openbittorrent.com%3A80","udp%3A%2F%2Fopen.demonii.com%3A1337","udp%3A%2F%2Ftracker.coppersurfer.tk%3A6969","udp%3A%2F%2Fexodus.desync.com%3A6969"],"infoHash":"579fa617024fd2c45bb203a8df173a3d9849ea2a","infoHashBuffer":{"type":"Buffer","data":[87,159,166,23,2,79,210,196,91,178,3,168,223,23,58,61,152,73,234,42]},"announce":[],"urlList":[]}}